<svg width="172" height="97" viewBox="0 0 172 97" fill="none" xmlns="http://www.w3.org/2000/svg">
<g clip-path="url(#clip0_8_3)">
<path d="M60.244 51.3186C60.6194 50.835 60.8101 49.9856 60.8101 48.7645C60.8101 46.9509 60.543 45.6411 60.0087 44.835C59.519 44.0578 58.7721 43.4834 57.9023 43.2149C57.0324 42.9489 55.7533 42.8159 54.065 42.8159H48.7231V63.7145H54.9201C57.0751 63.7145 58.4992 63.5896 59.1923 63.3397C59.5269 63.2261 59.8348 63.0438 60.0968 62.804C60.3587 62.5643 60.5691 62.2723 60.7148 61.9463C61.0325 61.2672 61.1914 60.2203 61.1914 58.8057V56.8712C61.1914 55.509 60.971 54.5015 60.53 53.8486C60.0891 53.1957 59.249 52.7221 58.0096 52.4279C59.1218 52.168 59.8667 51.7982 60.244 51.3186ZM55.8347 58.1891C55.8347 59.0324 55.7304 59.5644 55.5219 59.779C55.3133 59.9936 54.8337 60.1145 54.0799 60.1387V54.302C54.8744 54.3262 55.366 54.434 55.5546 54.6254C55.7423 54.8128 55.8347 55.3569 55.8347 56.2516V58.1891ZM55.6172 50.6325C55.4742 50.8954 55.1405 51.0254 54.6132 51.0254C54.4851 51.0254 54.3153 51.0254 54.0799 51.0405V46.3917C54.4539 46.3791 54.8278 46.4188 55.1912 46.5096C55.298 46.5555 55.3944 46.6231 55.4743 46.7084C55.5543 46.7937 55.6161 46.8947 55.6559 47.0053C55.8022 47.4478 55.8629 47.9148 55.8347 48.3806C55.8347 49.6199 55.7652 50.3705 55.6261 50.6325H55.6172Z" fill="#6F266E"/>
<path d="M67.3437 46.966C66.4835 47.3784 65.7916 48.0816 65.3863 48.9549C64.9891 49.8194 64.7905 51.0002 64.7905 52.4974V57.4939C64.7607 58.4717 64.8507 59.4495 65.0586 60.4047C65.2472 61.1314 65.6109 61.7991 66.1169 62.3478C66.6229 62.8965 67.2554 63.309 67.9575 63.5483C68.8797 63.8817 69.8536 64.0434 70.8325 64.0259C71.7864 64.0551 72.7366 63.8907 73.627 63.5422C74.3553 63.2303 74.9894 62.7288 75.4653 62.0883C75.8926 61.5545 76.207 60.9372 76.3888 60.2747C76.5408 59.4712 76.6067 58.6534 76.5855 57.8355V56.569H71.7143V58.836C71.7507 59.4176 71.6841 60.0011 71.5177 60.5589C71.4491 60.7066 71.3367 60.8288 71.1962 60.9085C71.0557 60.9882 70.8941 61.0213 70.7341 61.0032C70.6075 61.0177 70.4794 60.9935 70.3664 60.9337C70.2533 60.874 70.1604 60.7813 70.0996 60.6677C69.9893 60.444 69.9327 59.9453 69.9327 59.1715V55.4536H76.5884V53.1806C76.5884 51.5221 76.3998 50.2335 76.0224 49.3146C75.6243 48.3775 74.9305 47.6013 74.0501 47.1081C73.1126 46.5519 71.9209 46.2748 70.475 46.2768C69.3925 46.2551 68.32 46.4911 67.3437 46.966ZM71.2883 49.6864C71.413 50.2493 71.4602 50.8271 71.4283 51.4032V52.6576H69.9387V51.4032C69.9387 50.442 69.9814 49.8506 70.0668 49.6289C70.1502 49.4113 70.3647 49.2995 70.7282 49.2995C70.8518 49.292 70.9743 49.3271 71.0759 49.3989C71.1776 49.4707 71.2524 49.5752 71.2883 49.6954V49.6864Z" fill="#6F266E"/>
<path d="M85.5353 42.8189H80.2411V63.7176H85.5353V42.8189Z" fill="#6F266E"/>
<path d="M94.6519 42.8189H89.3577V63.7176H94.6519V42.8189Z" fill="#6F266E"/>
<path d="M99.3739 63.2581C100.103 63.7628 100.967 64.0306 101.85 64.0259C102.476 64.0443 103.095 63.8852 103.637 63.5664C104.16 63.2303 104.58 62.753 104.85 62.1881V63.7145H109.849V55.1181C109.849 52.2869 109.76 50.4179 109.581 49.5111C109.479 49.0401 109.285 48.5944 109.012 48.1996C108.739 47.8048 108.392 47.4688 107.99 47.2108C107.108 46.5882 105.798 46.2768 104.06 46.2768C102.608 46.2768 101.429 46.5519 100.521 47.102C99.6133 47.6521 99.0095 48.2869 98.7096 49.0063C98.4096 49.7257 98.2587 50.7473 98.2567 52.0713V53.2199H103.08V51.4274C103.047 50.8319 103.09 50.2344 103.208 49.6501C103.292 49.4234 103.506 49.3085 103.855 49.3085C103.992 49.301 104.128 49.336 104.245 49.4089C104.362 49.4818 104.455 49.5891 104.51 49.7166C104.641 49.9886 104.707 50.569 104.707 51.4637C104.742 51.9444 104.683 52.4275 104.531 52.8843C104.412 53.1181 103.508 53.5705 101.82 54.2415C100.245 54.8602 99.2568 55.4022 98.8556 55.8677C98.4543 56.3332 98.2557 57.2067 98.2597 58.4884V59.8939C98.2518 61.6228 98.6232 62.7442 99.3739 63.2581ZM103.268 57.107C103.399 56.6929 103.864 56.1821 104.698 55.5685V59.0929C104.698 59.9543 104.65 60.4863 104.552 60.6888C104.488 60.7967 104.395 60.883 104.283 60.9368C104.171 60.9906 104.046 61.0095 103.923 60.9911C103.784 61.0064 103.644 60.9774 103.523 60.908C103.401 60.8387 103.303 60.7325 103.244 60.6042C103.128 60.3473 103.071 59.773 103.071 58.8873C103.05 58.2873 103.116 57.6874 103.268 57.107Z" fill="#6F266E"/>
<path d="M121.82 63.7145L124.224 46.5851H119.636C119.447 48.4531 119.281 50.3816 119.136 52.3705C118.865 55.9352 118.673 58.176 118.558 59.0929L117.11 46.5851H112.531L115.114 63.7145H121.82Z" fill="#6F266E"/>
<path d="M132.25 46.5882H126.956V63.7175H132.25V46.5882Z" fill="#6F266E"/>
<path d="M132.25 42.8189H126.956V45.5423H132.25V42.8189Z" fill="#6F266E"/>
<path d="M138.951 56.176C140.738 57.1836 141.731 57.7952 141.93 58.0108C142.129 58.2264 142.222 58.7382 142.21 59.5463C142.21 60.1508 142.139 60.5286 141.996 60.713C141.898 60.8158 141.777 60.8943 141.645 60.9425C141.512 60.9907 141.37 61.0074 141.23 60.9911C141.088 61.006 140.945 60.974 140.823 60.8999C140.701 60.8259 140.605 60.7137 140.551 60.58C140.435 60.3019 140.378 59.7065 140.378 58.7846V57.6994H135.832V58.5337C135.832 59.9624 136.005 61.0304 136.353 61.7377C136.775 62.5094 137.454 63.1039 138.269 63.4153C139.332 63.8536 140.473 64.0645 141.62 64.0349C142.657 64.062 143.687 63.8663 144.644 63.4606C145.409 63.14 146.041 62.5599 146.432 61.8193C146.787 61.11 146.965 60.0581 146.965 58.6637C146.965 57.4153 146.733 56.4662 146.265 55.8103C145.797 55.1544 144.82 54.4592 143.327 53.7216C142.55 53.3647 141.806 52.9368 141.105 52.443C140.816 52.2438 140.592 51.9633 140.458 51.636C140.37 51.258 140.333 50.8695 140.348 50.4813C140.326 50.174 140.402 49.8677 140.566 49.6078C140.641 49.5072 140.74 49.4271 140.853 49.3744C140.966 49.3216 141.091 49.298 141.215 49.3055C141.57 49.3055 141.793 49.4113 141.882 49.6229C142.004 50.1167 142.049 50.6265 142.016 51.1342V52.0652H146.572V51.0708C146.59 50.4351 146.545 49.7992 146.438 49.1725C146.296 48.6766 146.033 48.2246 145.675 47.8577C145.174 47.3315 144.553 46.939 143.867 46.7151C142.946 46.4043 141.979 46.2581 141.01 46.2829C139.992 46.2606 138.98 46.4403 138.03 46.8118C137.272 47.0865 136.631 47.6209 136.219 48.3232C135.861 48.972 135.683 49.9796 135.683 51.3458C135.662 52.2054 135.832 53.0586 136.18 53.8425C136.518 54.5377 137.441 55.3156 138.951 56.176Z" fill="#6F266E"/>
<path d="M150.588 58.4098C150.553 59.4939 150.6 60.5791 150.728 61.6561C150.83 62.132 151.079 62.5622 151.44 62.8833C151.809 63.2328 152.267 63.4695 152.763 63.5664C153.592 63.688 154.431 63.7376 155.268 63.7145H157.354V60.9518C156.514 60.9518 156.037 60.8883 155.924 60.7584C155.811 60.6284 155.751 60.0027 155.751 58.8753V49.7106H157.139V46.9902H155.73V44.291H150.588V46.9902H149.474V49.7106H150.582L150.588 58.4098Z" fill="#6F266E"/>
<path d="M161.138 63.2581C161.866 63.7628 162.728 64.0306 163.61 64.0259C164.23 64.0529 164.845 63.8927 165.375 63.5656C165.905 63.2384 166.328 62.759 166.59 62.1881V63.7145H171.589V55.1181C171.589 52.2869 171.5 50.4179 171.321 49.5111C171.22 49.0398 171.028 48.5937 170.755 48.1987C170.482 47.8037 170.135 47.4679 169.733 47.2108C168.839 46.5882 167.54 46.2768 165.8 46.2768C164.35 46.2768 163.171 46.5519 162.264 47.102C161.356 47.6521 160.751 48.2869 160.449 49.0063C160.149 49.7257 160 50.7473 160 52.0713V53.2199H164.82V51.4274C164.787 50.8319 164.83 50.2344 164.948 49.6501C165.032 49.4234 165.246 49.3085 165.598 49.3085C165.735 49.3014 165.871 49.3366 165.988 49.4094C166.105 49.4823 166.197 49.5894 166.253 49.7166C166.384 49.9886 166.45 50.569 166.45 51.4637C166.485 51.9446 166.424 52.4278 166.271 52.8843C166.152 53.1181 165.248 53.5705 163.56 54.2415C161.983 54.8602 160.99 55.4022 160.58 55.8677C160.181 56.3302 159.985 57.2037 159.985 58.4883V59.8939C160.002 61.6228 160.387 62.7442 161.138 63.2581ZM165.029 57.107C165.16 56.6929 165.624 56.1821 166.462 55.5685V59.0929C166.462 59.9543 166.411 60.4863 166.316 60.6888C166.251 60.7964 166.157 60.8823 166.044 60.936C165.932 60.9898 165.807 61.0089 165.684 60.9911C165.545 61.0064 165.405 60.9774 165.283 60.908C165.161 60.8387 165.064 60.7325 165.005 60.6042C164.889 60.3473 164.832 59.773 164.832 58.8873C164.811 58.2873 164.877 57.6874 165.029 57.107Z" fill="#6F266E"/>
<path d="M48.5682 77.4283V96.997H53.7105V93.0675C54.1091 93.6164 54.6165 94.0746 55.2001 94.4126C55.7426 94.7132 56.3517 94.8682 56.9698 94.863C57.6943 94.8854 58.408 94.6806 59.0136 94.2766C59.5622 93.9068 59.9593 93.347 60.1308 92.7018C60.3156 92.0428 60.4049 90.9366 60.4049 89.3769V82.1648C60.4382 81.1965 60.3663 80.2275 60.1904 79.2752C60.0124 78.6575 59.6265 78.1227 59.1 77.7638C58.4996 77.3232 57.7732 77.0949 57.0324 77.114C56.4028 77.1072 55.7817 77.2621 55.2269 77.5643C54.6312 77.9062 54.115 78.3743 53.7135 78.9366L53.8028 77.4253L48.5682 77.4283ZM53.8565 80.5386C53.9089 80.4102 54.0014 80.3028 54.1198 80.233C54.2382 80.1631 54.376 80.1345 54.5119 80.1517C54.8595 80.1517 55.071 80.2636 55.1465 80.4872C55.2562 81.1216 55.2952 81.7664 55.2627 82.4096V89.7547C55.2919 90.3319 55.2509 90.9106 55.1405 91.4776C55.0601 91.7164 54.8426 91.8343 54.5238 91.8343C54.3871 91.8513 54.2487 91.8228 54.1294 91.753C54.0101 91.6832 53.9164 91.576 53.8624 91.4474C53.7611 91.1874 53.7105 90.5406 53.7105 89.5099V82.4127C53.7105 81.4233 53.7591 80.7986 53.8565 80.5386Z" fill="#6F266E"/>
<path d="M66.4708 85.0817C64.8918 85.7003 63.9036 86.2424 63.5064 86.7079C63.1092 87.1733 62.9105 88.0469 62.9105 89.3285V90.7371C62.9105 92.466 63.2859 93.5864 64.0367 94.0982C64.7655 94.6042 65.6294 94.8721 66.5125 94.866C67.1325 94.8945 67.7468 94.7353 68.2773 94.4086C68.8078 94.0818 69.2306 93.6024 69.4918 93.0313V94.5577H74.494V85.9613C74.494 83.128 74.4046 81.258 74.2259 80.3512C74.1229 79.8809 73.9293 79.4358 73.6563 79.0416C73.3833 78.6473 73.0362 78.3117 72.6349 78.054C71.7531 77.4313 70.4432 77.12 68.7052 77.12C67.2533 77.12 66.0735 77.3951 65.1659 77.9452C64.2582 78.4953 63.6544 79.1301 63.3545 79.8495C63.0565 80.5658 62.9016 81.5905 62.9016 82.9144V84.063H67.7251V82.2676C67.6929 81.6732 67.735 81.077 67.8502 80.4933C67.9366 80.2666 68.1481 80.1517 68.4997 80.1517C68.6368 80.1441 68.773 80.1791 68.8901 80.252C69.0072 80.3249 69.0997 80.4323 69.1551 80.5598C69.2862 80.8278 69.3518 81.4102 69.3518 82.3069C69.3858 82.7875 69.3261 83.2703 69.176 83.7275C69.0608 83.9613 68.159 84.4127 66.4708 85.0817ZM69.3577 89.9361C69.3577 90.7975 69.31 91.3295 69.2117 91.532C69.1473 91.639 69.0536 91.7246 68.9419 91.7783C68.8302 91.832 68.7055 91.8515 68.5831 91.8343C68.4439 91.8494 68.3035 91.8202 68.1813 91.7509C68.0591 91.6816 67.9611 91.5756 67.9008 91.4474C67.7876 91.1874 67.731 90.6151 67.731 89.7305C67.7102 89.1295 67.7764 88.5286 67.9277 87.9471C68.0587 87.5361 68.5235 87.0222 69.3577 86.4116V89.9361Z" fill="#6F266E"/>
<path d="M79.955 77.9391C80.2077 77.1596 80.3246 76.3413 80.3006 75.521V73.647H76.8506V77.7396H77.7176C77.6773 77.9902 77.5772 78.2269 77.4261 78.4292C77.275 78.6315 77.0774 78.7933 76.8506 78.9003V80.4117C77.5458 80.2637 78.2001 79.9613 78.7663 79.526C79.3052 79.1246 79.7181 78.5735 79.955 77.9391Z" fill="#6F266E"/>
<path d="M90.5404 94.1133C91.3865 94.6151 92.5355 94.866 93.9874 94.866C94.9696 94.8971 95.9467 94.7104 96.8505 94.3189C97.6118 93.9625 98.2613 93.3998 98.7274 92.6927C99.1705 92.0647 99.4624 91.34 99.5795 90.5768C99.686 89.5538 99.7347 88.5254 99.7255 87.4968H95.1463V89.5371C95.1798 90.1477 95.1174 90.7599 94.9616 91.3506C94.9117 91.4977 94.8156 91.6241 94.688 91.7103C94.5605 91.7966 94.4085 91.838 94.2555 91.8282C94.1106 91.8284 93.9689 91.7848 93.8484 91.703C93.728 91.6212 93.6343 91.5048 93.5792 91.3688C93.4029 90.9344 93.3245 90.4656 93.3498 89.9965V81.92C93.3166 81.4328 93.3691 80.9436 93.5048 80.4751C93.5601 80.3664 93.6467 80.2772 93.7531 80.2194C93.8595 80.1617 93.9807 80.1381 94.1006 80.1517C94.2276 80.1408 94.3548 80.1706 94.4643 80.2367C94.5738 80.3028 94.6602 80.402 94.7114 80.5205C94.8513 80.9726 94.9079 81.447 94.8782 81.92V83.8968H99.7195C99.7195 82.2847 99.5626 81.0404 99.2488 80.1638C98.8906 79.2332 98.2194 78.4612 97.354 77.9845C96.3084 77.3831 95.1203 77.084 93.9189 77.12C92.7165 77.0818 91.5272 77.3832 90.4838 77.9905C89.5423 78.5709 88.9266 79.2308 88.6366 79.9704C88.3466 80.7099 88.2026 81.8071 88.2046 83.262V88.1285C88.2046 89.799 88.3804 91.0877 88.7319 91.9945C89.075 92.8918 89.7141 93.6406 90.5404 94.1133Z" fill="#6F266E"/>
<path d="M102.219 77.4283V88.9809C102.219 90.4539 102.249 91.4373 102.309 91.931C102.368 92.4313 102.52 92.9155 102.758 93.3577C103.016 93.8303 103.409 94.2128 103.885 94.4549C104.482 94.7493 105.142 94.8904 105.806 94.866C106.429 94.8778 107.044 94.729 107.594 94.4338C108.137 94.125 108.592 93.6768 108.911 93.134L108.821 94.5577H114.053V77.4283H108.923V88.9567C108.955 89.7885 108.919 90.6216 108.815 91.4474C108.744 91.7043 108.517 91.8343 108.136 91.8343C107.755 91.8343 107.561 91.7103 107.481 91.4595C107.4 91.2086 107.359 90.4197 107.359 89.0837V77.4283H102.219Z" fill="#6F266E"/>
<path d="M118.987 77.9452C118.079 78.4953 117.474 79.1301 117.172 79.8495C116.874 80.5658 116.722 81.5905 116.722 82.9144V84.063H121.543V82.2676C121.511 81.673 121.554 81.0768 121.671 80.4933C121.754 80.2666 121.969 80.1517 122.32 80.1517C122.458 80.1446 122.594 80.1797 122.711 80.2526C122.828 80.3254 122.92 80.4325 122.976 80.5598C123.107 80.8278 123.173 81.4102 123.173 82.3069C123.208 82.7878 123.147 83.271 122.994 83.7275C122.875 83.9593 121.972 84.4106 120.286 85.0817C118.707 85.7003 117.718 86.2424 117.321 86.7079C116.924 87.1733 116.725 88.0469 116.725 89.3285V90.7371C116.725 92.466 117.101 93.5864 117.852 94.0982C118.579 94.6038 119.442 94.8717 120.324 94.866C120.944 94.8945 121.559 94.7353 122.089 94.4086C122.62 94.0818 123.042 93.6024 123.304 93.0313V94.5577H128.321V85.9613C128.321 83.128 128.232 81.258 128.056 80.3512C127.953 79.8809 127.759 79.4358 127.486 79.0416C127.213 78.6473 126.866 78.3117 126.465 78.054C125.583 77.4313 124.272 77.12 122.532 77.12C121.074 77.12 119.892 77.3951 118.987 77.9452ZM123.173 89.9361C123.173 90.7975 123.125 91.3295 123.027 91.532C122.962 91.639 122.868 91.7246 122.757 91.7783C122.645 91.832 122.52 91.8515 122.398 91.8343C122.259 91.8498 122.118 91.8209 121.996 91.7515C121.874 91.6822 121.776 91.5759 121.716 91.4474C121.602 91.1874 121.543 90.6161 121.543 89.7305C121.521 89.1293 121.589 88.5281 121.742 87.9471C121.874 87.5361 122.338 87.0222 123.173 86.4116V89.9361Z" fill="#6F266E"/>
<path d="M131.124 77.4283V94.5577H136.264V82.9779C136.264 81.6872 136.311 80.8953 136.404 80.5961C136.449 80.4517 136.542 80.3281 136.668 80.2468C136.794 80.1656 136.944 80.1319 137.092 80.1517C137.437 80.1517 137.652 80.2817 137.726 80.5386C137.835 81.2513 137.874 81.9733 137.843 82.6938V94.5577H142.982V82.5517C143.018 81.4769 142.937 80.4014 142.741 79.3447C142.578 78.7004 142.194 78.1358 141.659 77.7517C141.025 77.307 140.266 77.0851 139.496 77.12C138.844 77.1048 138.2 77.2677 137.631 77.5915C137.063 77.9356 136.592 78.4229 136.264 79.0061L136.353 77.4283H131.124Z" fill="#6F266E"/>
<path d="M145.898 79.1966C145.697 80.1158 145.614 81.0576 145.651 81.9986V90.0146C145.616 90.9335 145.699 91.8531 145.898 92.7502C146.1 93.3568 146.497 93.8772 147.025 94.2282C147.634 94.6625 148.365 94.8862 149.11 94.866C149.701 94.8679 150.284 94.7357 150.817 94.4791C151.4 94.1903 151.926 93.7959 152.369 93.3154V94.5577H157.509V73.647H152.346V78.5044C151.943 78.0534 151.449 77.6954 150.898 77.4545C150.347 77.2136 149.752 77.0954 149.152 77.1079C148.397 77.0861 147.654 77.3049 147.028 77.7336C146.497 78.0755 146.098 78.592 145.898 79.1966ZM150.79 81.7386C150.755 81.2997 150.81 80.8583 150.951 80.4419C151.028 80.3483 151.125 80.2735 151.234 80.2232C151.343 80.1729 151.462 80.1485 151.582 80.1517C151.702 80.1549 151.82 80.1857 151.926 80.2417C152.032 80.2977 152.125 80.3775 152.197 80.4751C152.333 80.8812 152.387 81.3108 152.358 81.7386V89.667C152.358 90.6252 152.301 91.2237 152.191 91.4806C152.131 91.6038 152.036 91.7053 151.918 91.7713C151.799 91.8373 151.664 91.8646 151.529 91.8494C151.409 91.8625 151.287 91.838 151.181 91.7791C151.074 91.7203 150.988 91.6298 150.933 91.5199C150.799 91.075 150.747 90.6088 150.779 90.1446L150.79 81.7386Z" fill="#6F266E"/>
<path d="M168.916 77.6399C167.967 77.2698 166.954 77.0931 165.937 77.12C164.561 77.12 163.433 77.391 162.553 77.9331C161.718 78.419 161.072 79.1792 160.72 80.0883C160.381 80.983 160.211 82.2263 160.211 83.8182V88.2071C160.178 89.3059 160.274 90.4048 160.497 91.4806C160.661 92.1663 160.981 92.8031 161.433 93.3396C161.926 93.8915 162.563 94.2898 163.271 94.4882C164.209 94.7616 165.182 94.889 166.158 94.866C167.078 94.8822 167.994 94.7317 168.863 94.4217C169.617 94.1473 170.283 93.6698 170.79 93.0403C171.27 92.458 171.606 91.7678 171.771 91.0272C171.952 89.9077 172.028 88.7731 171.997 87.6389V83.4434C172.029 82.5296 171.946 81.6154 171.75 80.723C171.546 80.0196 171.184 79.3739 170.691 78.8372C170.199 78.3005 169.59 77.8874 168.914 77.6308L168.916 77.6399ZM166.861 90.0539C166.892 90.5405 166.843 91.0288 166.715 91.4988C166.65 91.6009 166.56 91.6844 166.454 91.7411C166.348 91.7978 166.23 91.8259 166.11 91.8225C165.99 91.8192 165.873 91.7846 165.77 91.722C165.668 91.6595 165.582 91.5712 165.523 91.4655C165.39 90.9501 165.339 90.4165 165.371 89.8847V82.1527C165.371 81.2762 165.422 80.723 165.523 80.4933C165.576 80.3811 165.661 80.2882 165.768 80.2271C165.874 80.166 165.997 80.1396 166.119 80.1517C166.241 80.1369 166.365 80.162 166.472 80.2234C166.579 80.2849 166.664 80.3794 166.715 80.4933C166.841 81.0366 166.888 81.5956 166.855 82.1527L166.861 90.0539Z" fill="#6F266E"/>
<path d="M34.6849 70.3734C35.1538 70.3541 35.5971 70.1516 35.9221 69.8082C36.2472 69.4648 36.4287 69.0072 36.4287 68.5311C36.4287 68.055 36.2472 67.5973 35.9221 67.254C35.5971 66.9106 35.1538 66.708 34.6849 66.6888C26.4499 66.6888 18.5522 63.3698 12.7292 57.462C6.90614 51.5542 3.6348 43.5415 3.6348 35.1867C3.6348 26.8318 6.90614 18.8191 12.7292 12.9113C18.5522 7.00352 26.4499 3.68456 34.6849 3.68456C48.4879 3.68456 60.7506 13.1696 64.5284 26.4844L60.6255 25.5776C63.2145 27.9293 65.875 31.9101 67.5494 35.1776C68.3806 31.5927 69.9954 27.0708 71.9379 24.1479L68.1929 26.0824C64.1858 10.8785 50.3172 -0.00912476 34.6849 -0.00912476C30.1304 -0.00912482 25.6205 0.901006 21.4127 2.6693C17.2049 4.4376 13.3816 7.02944 10.1611 10.2968C6.94062 13.5642 4.38598 17.4432 2.64305 21.7122C0.900124 25.9813 0.00305176 30.5568 0.00305176 35.1776C0.00305176 39.7984 0.900124 44.3739 2.64305 48.643C4.38598 52.912 6.94062 56.791 10.1611 60.0584C13.3816 63.3258 17.2049 65.9176 21.4127 67.6859C25.6205 69.4542 30.1304 70.3643 34.6849 70.3643V70.3734Z" fill="#6F266E"/>
<path d="M31.5863 33.1434C31.4015 33.5242 31.3057 33.9431 31.3063 34.3676C31.3058 34.7921 31.4008 35.211 31.5841 35.5926C31.7674 35.9742 32.0341 36.3084 32.3638 36.5696C32.6936 36.8308 33.0778 37.0123 33.4872 37.1001C33.8965 37.1879 34.3202 37.1798 34.726 37.0764C35.1318 36.973 35.509 36.7771 35.8288 36.5034C36.1487 36.2298 36.4028 35.8857 36.5717 35.4974C36.7407 35.1091 36.8202 34.6867 36.804 34.2626C36.7878 33.8384 36.6764 33.4236 36.4783 33.0497L46.6883 20.2306L47.454 21.6906L49.2803 15.3097L43.5154 18.4352L45.0854 18.8916L34.8784 31.6835C34.6121 31.5997 34.335 31.5569 34.0561 31.5565C33.7432 31.5558 33.4326 31.611 33.1385 31.7197L27.4362 25.1455L28.9854 24.6256L23.1013 21.7419L25.1719 28.0291L25.878 26.5389L31.5863 33.1434Z" fill="#6F266E"/>
<path d="M34.0532 12.6014C35.5719 12.6014 36.8031 11.3524 36.8031 9.81153C36.8031 8.27071 35.5719 7.02162 34.0532 7.02162C32.5345 7.02162 31.3033 8.27071 31.3033 9.81153C31.3033 11.3524 32.5345 12.6014 34.0532 12.6014Z" fill="#6F266E"/>
<path d="M22.6902 17.0629C23.2341 17.0629 23.7657 16.8993 24.2179 16.5927C24.6702 16.2861 25.0226 15.8504 25.2307 15.3406C25.4389 14.8308 25.4933 14.2699 25.3872 13.7287C25.2811 13.1875 25.0192 12.6904 24.6346 12.3002C24.2501 11.91 23.7601 11.6443 23.2267 11.5367C22.6932 11.429 22.1403 11.4843 21.6379 11.6954C21.1354 11.9066 20.7059 12.2642 20.4037 12.723C20.1016 13.1818 19.9403 13.7212 19.9403 14.273C19.9403 14.6394 20.0114 15.0021 20.1496 15.3406C20.2878 15.6791 20.4904 15.9867 20.7457 16.2457C21.0011 16.5048 21.3042 16.7103 21.6379 16.8505C21.9715 16.9907 22.3291 17.0629 22.6902 17.0629Z" fill="#6F266E"/>
<path d="M13.5259 20.0372C12.9819 20.0366 12.45 20.1997 11.9974 20.5059C11.5448 20.8121 11.1918 21.2476 10.9833 21.7573C10.7747 22.2671 10.7198 22.8281 10.8255 23.3695C10.9313 23.9109 11.193 24.4083 11.5774 24.7988C11.9619 25.1893 12.4519 25.4553 12.9854 25.5632C13.5189 25.6711 14.0719 25.616 14.5746 25.4049C15.0772 25.1938 15.5069 24.8362 15.8092 24.3774C16.1115 23.9185 16.2728 23.379 16.2728 22.8271C16.2728 22.0877 15.9835 21.3785 15.4685 20.8554C14.9534 20.3323 14.2547 20.038 13.5259 20.0372Z" fill="#6F266E"/>
<path d="M10.2249 37.5202C11.7436 37.5202 12.9747 36.2711 12.9747 34.7303C12.9747 33.1895 11.7436 31.9404 10.2249 31.9404C8.70614 31.9404 7.47498 33.1895 7.47498 34.7303C7.47498 36.2711 8.70614 37.5202 10.2249 37.5202Z" fill="#6F266E"/>
<path d="M13.526 49.7922C14.07 49.7922 14.6018 49.6285 15.0541 49.3218C15.5063 49.0151 15.8588 48.5792 16.0668 48.0692C16.2749 47.5593 16.3292 46.9982 16.2228 46.4569C16.1165 45.9156 15.8543 45.4185 15.4694 45.0285C15.0845 44.6384 14.5943 44.3729 14.0606 44.2656C13.527 44.1583 12.974 44.214 12.4716 44.4256C11.9692 44.6372 11.5399 44.9953 11.2381 45.4545C10.9363 45.9137 10.7755 46.4534 10.7761 47.0053C10.7761 47.3715 10.8473 47.7342 10.9855 48.0725C11.1237 48.4108 11.3263 48.7182 11.5817 48.977C11.8371 49.2358 12.1403 49.441 12.4739 49.5809C12.8075 49.7208 13.165 49.7926 13.526 49.7922Z" fill="#6F266E"/>
<path d="M22.6902 57.9775C23.2341 57.9775 23.7657 57.8139 24.2179 57.5073C24.6702 57.2008 25.0226 56.7651 25.2307 56.2553C25.4389 55.7455 25.4933 55.1845 25.3872 54.6433C25.2811 54.1021 25.0192 53.605 24.6346 53.2149C24.2501 52.8247 23.7601 52.559 23.2267 52.4513C22.6932 52.3437 22.1403 52.3989 21.6379 52.6101C21.1354 52.8212 20.7059 53.1788 20.4037 53.6376C20.1016 54.0964 19.9403 54.6358 19.9403 55.1876C19.9403 55.9275 20.23 56.6372 20.7457 57.1604C21.2614 57.6836 21.9609 57.9775 22.6902 57.9775Z" fill="#6F266E"/>
<path d="M34.0562 62.439C34.6 62.439 35.1317 62.2753 35.5839 61.9688C36.0361 61.6622 36.3886 61.2265 36.5967 60.7167C36.8048 60.2069 36.8593 59.646 36.7532 59.1048C36.6471 58.5636 36.3852 58.0665 36.0006 57.6763C35.616 57.2861 35.1261 57.0204 34.5926 56.9128C34.0592 56.8051 33.5063 56.8604 33.0038 57.0715C32.5013 57.2827 32.0719 57.6403 31.7697 58.0991C31.4676 58.5579 31.3063 59.0973 31.3063 59.6491C31.3059 60.0155 31.3767 60.3785 31.5148 60.7172C31.6529 61.0558 31.8554 61.3636 32.1108 61.6227C32.3663 61.8819 32.6695 62.0873 33.0034 62.2274C33.3372 62.3675 33.6949 62.4394 34.0562 62.439Z" fill="#6F266E"/>
</g>
<defs>
<clipPath id="clip0_8_3">
<rect width="172" height="97" fill="white"/>
</clipPath>
</defs>
</svg>
